#!OML:ASF H:\ManfredETheater\Project 1\Capture day 1\Session 1\subject.ASF
:FULLY-SPECIFIED
:DEGREES
345
root -17.2809 16.6595 -45.2376 -154.139 -23.4127 -174.126
lowerback 5.94901 2.83942 5.99893
upperback -3.6628 4.3253 1.62997
thorax -6.8707 1.82628 -2.13463
lowerneck -19.7846 -2.75154 -3.9053
upperneck 0.498762 -3.32387 2.11331
head 3.33113 -1.74771 0.987943
rclavicle -1.63003e-014 -2.38542e-015
rhumerus -35.4876 26.6351 -93.5135
rradius 134.08
rwrist -8.31839
rhand -22.6616 15.8249
rfingers 7.12502
rthumb 3.76991 -14.1215
lclavicle -1.63003e-014 -2.38542e-015
lhumerus -89.5448 -13.096 98.1032
lradius 119.15
lwrist 23.2336
lhand -22.9289 -11.7243
lfingers 7.12502
lthumb 3.51176 18.2265
rfemur -3.38409 1.1739 27.8015
rtibia 28.8689
rfoot 2.64943 0.815074
rtoes -39.8313
lfemur -82.3128 4.66668 -17.7869
ltibia 81.5931
lfoot -14.2992 -7.40975
ltoes -13.6904
346
root -17.4716 16.7175 -45.6857 -154.301 -23.9907 -173.932
lowerback 5.17133 2.92803 6.25398
upperback -3.75105 4.39438 1.62942
thorax -6.49306 1.8558 -2.23812
lowerneck -19.8468 -2.98497 -4.10661
upperneck 0.680064 -3.582 2.27621
head 3.41026 -1.86247 1.04599
rclavicle 3.20043e-014 -2.14687e-014
rhumerus -35.869 27.3586 -93.1456
rradius 135.171
rwrist -8.05941
rhand -22.822 15.9338
rfingers 7.12502
rthumb 3.61496 -14.0153
lclavicle 3.20043e-014 -2.14687e-014
lhumerus -89.9486 -12.804 97.7894
lradius 119.48
lwrist 22.7938
lhand -23.7739 -12.2188
lfingers 7.12502
lthumb 2.69569 17.7439
rfemur -1.06178 2.02931 27.9867
rtibia 25.7998
rfoot 9.09752 0.400139
rtoes -37.3326
lfemur -82.6381 4.01736 -17.5646
ltibia 77.6007
lfoot -14.4783 -7.54753
ltoes -14.4386
347
root -17.6627 16.7705 -46.134 -154.546 -24.544 -173.695
lowerback 4.47756 3.00675 6.51602
upperback -3.82272 4.45316 1.64458
thorax -6.14804 1.87978 -2.33102
lowerneck -19.8619 -3.19784 -4.3
upperneck 0.84525 -3.81688 2.4489
head 3.47793 -1.96501 1.10819
rclavicle -9.93923e-016 -1.98785e-014
rhumerus -36.2915 27.9183 -92.8206
rradius 135.863
rwrist -8.16919
rhand -23.1609 15.8365
rfingers 7.12502
rthumb 3.28768 -14.1179
lclavicle -9.93923e-016 -1.98785e-014
lhumerus -90.1643 -12.5026 97.4251
lradius 119.621
lwrist 22.1422
lhand -24.5147 -12.5575
lfingers 7.12502
lthumb 1.9803 17.413
rfemur 1.15549 3.04169 28.282
rtibia 23.0189
rfoot 15.0951 -0.271698
rtoes -34.6978
lfemur -82.69 3.43378 -17.3001
ltibia 73.4956
lfoot -14.5331 -7.59705
ltoes -14.7291
348
root -17.8524 16.8173 -46.581 -154.886 -25.0671 -173.414
lowerback 3.90125 3.0732 6.78502
upperback -3.87365 4.50239 1.67314
thorax -5.85032 1.89837 -2.41845
lowerneck -19.8655 -3.38864 -4.4882
upperneck 1.0073 -4.02576 2.63748
head 3.54333 -2.05378 1.17668
rclavicle -1.09332e-014 1.66979e-014
rhumerus -36.7421 28.3072 -92.5626
rradius 136.15
rwrist -8.55243
rhand -23.6101 15.5949
rfingers 7.12502
rthumb 2.85389 -14.3658
lclavicle -1.09332e-014 1.66979e-014
lhumerus -90.2219 -12.1925 97.0508
lradius 119.612
lwrist 21.4071
lhand -25.1622 -12.9191
lfingers 7.12502
lthumb 1.35492 17.0563
rfemur 3.2471 4.17794 28.7097
rtibia 20.6631
rfoot 20.2303 -0.85616
rtoes -31.9575
lfemur -82.4781 2.92098 -16.9952
ltibia 69.3341
lfoot -14.4561 -7.53754
ltoes -14.5171
349
root -18.0375 16.838 -47.022 -155.324 -25.5408 -173.099
lowerback 3.4632 3.13289 7.02409
upperback -3.89075 4.55068 1.71746
thorax -5.59974 1.9182 -2.47977
lowerneck -19.8978 -3.56462 -4.68008
upperneck 1.16876 -4.21593 2.84171
head 3.61343 -2.13282 1.25162
rclavicle 6.83819e-014 3.57812e-014
rhumerus -37.1828 28.5122 -92.3551
rradius 136.039
rwrist -9.07253
rhand -24.07 15.2646
rfingers 7.12502
rthumb 2.40974 -14.7015
lclavicle 6.83819e-014 3.57812e-014
lhumerus -90.1204 -11.8736 96.7027
lradius 119.466
lwrist 20.5944
lhand -25.6913 -13.2239
lfingers 7.12502
lthumb 0.843913 16.7542
rfemur 5.10646 5.34309 29.2572
rtibia 19.0611
rfoot 24.1705 -1.18629
rtoes -28.8346
lfemur -82.1364 2.48397 -16.6735
ltibia 65.2583
lfoot -14.2106 -7.33209
ltoes -13.8691
350
root -18.2206 16.8699 -47.4641 -155.856 -25.9682 -172.75
lowerback 3.17662 3.17525 7.23795
upperback -3.88722 4.58758 1.77378
thorax -5.41809 1.93259 -2.52248
lowerneck -19.9421 -3.71537 -4.85296
upperneck 1.32078 -4.37923 3.05862
head 3.68218 -2.19806 1.32964
rclavicle 1.49089e-014 4.01545e-014
rhumerus -37.6402 28.5386 -92.2637
rradius 135.547
rwrist -9.54115
rhand -24.4631 14.8536
rfingers 7.12502
rthumb 2.03011 -15.1165
lclavicle 1.49089e-014 4.01545e-014
lhumerus -89.8989 -11.5215 96.3796
lradius 119.229
lwrist 19.7848
lhand -26.0178 -13.4671
lfingers 7.12502
lthumb 0.528573 16.5119
rfemur 6.5589 6.37509 29.8898
rtibia 18.4734
rfoot 26.8595 -1.27377
rtoes -25.1798
lfemur -81.4691 2.12557 -16.3342
ltibia 61.2253
lfoot -13.895 -6.98159
ltoes -12.8873
351
root -18.3998 16.8935 -47.9029 -156.466 -26.3386 -172.374
lowerback 3.0172 3.20642 7.39602
upperback -3.84976 4.61838 1.85609
thorax -5.27997 1.94679 -2.51404
lowerneck -20.0208 -3.8459 -5.02438
upperneck 1.44576 -4.51827 3.28014
head 3.74742 -2.25205 1.41062
rclavicle 1.06151e-013 1.19271e-014
rhumerus -38.0775 28.3918 -92.2555
rradius 134.686
rwrist -9.80068
rhand -24.7273 14.4017
rfingers 7.12502
rthumb 1.77493 -15.5707
lclavicle 1.06151e-013 1.19271e-014
lhumerus -89.5277 -11.1135 96.1191
lradius 118.917
lwrist 19.0268
lhand -26.1886 -13.6024
lfingers 7.12502
lthumb 0.363579 16.377
rfemur 7.51432 7.15668 30.56
rtibia 19.0912
rfoot 28.316 -1.31028
rtoes -21.0738
lfemur -80.6448 1.84214 -15.9914
ltibia 57.4061
lfoot -13.4499 -6.49484
ltoes -11.5454
352
root -18.5754 16.9076 -48.3379 -157.145 -26.6509 -171.986
lowerback 2.98443 3.2269 7.48737
upperback -3.78466 4.64429 1.96641
thorax -5.19258 1.96115 -2.44687
lowerneck -20.1266 -3.95686 -5.19678
upperneck 1.54184 -4.63242 3.49671
head 3.80706 -2.29499 1.49223
rclavicle 3.97569e-016 2.82274e-014
rhumerus -38.5104 28.0706 -92.3364
rradius 133.491
rwrist -9.75362
rhand -24.8328 13.8842
rfingers 7.12502
rthumb 1.67301 -16.089
lclavicle 3.97569e-016 2.82274e-014
lhumerus -89.031 -10.6526 95.951
lradius 118.543
lwrist 18.3823
lhand -26.2436 -13.7483
lfingers 7.12502
lthumb 0.310474 16.2312
rfemur 8.05634 7.61341 31.2079
rtibia 20.6924
rfoot 28.8853 -1.51942
rtoes -16.9257
lfemur -79.6875 1.62125 -15.6593
ltibia 53.8729
lfoot -12.888 -5.9085
ltoes -10.1472
353
root -18.7479 16.9113 -48.7693 -157.865 -26.8902 -171.605
lowerback 3.03487 3.24032 7.48164
upperback -3.68485 4.6642 2.10935
thorax -5.12622 1.9775 -2.29668
lowerneck -20.243 -4.04562 -5.3673
upperneck 1.58085 -4.71862 3.68734
head 3.84888 -2.32726 1.56831
rclavicle -4.01545e-014 -1.03368e-014
rhumerus -38.9168 27.5975 -92.4676
rradius 131.997
rwrist -9.41619
rhand -24.7844 13.3195
rfingers 7.12502
rthumb 1.71975 -16.6533
lclavicle -4.01545e-014 -1.03368e-014
lhumerus -88.3886 -10.1246 95.8945
lradius 118.104
lwrist 17.8983
lhand -26.1539 -13.8225
lfingers 7.12502
lthumb 0.397087 16.1569
rfemur 8.36225 7.75357 31.7731
rtibia 22.8362
rfoot 28.997 -2.00266
rtoes -13.4121
lfemur -78.5672 1.452 -15.344
ltibia 50.5239
lfoot -12.1345 -5.26805
ltoes -8.6867
354
root -18.9182 16.9046 -49.1976 -158.663 -27.0653 -171.245
lowerback 3.20669 3.23992 7.3854
upperback -3.55084 4.67351 2.28045
thorax -5.10301 1.99226 -2.07405
lowerneck -20.3289 -4.11757 -5.53565
upperneck 1.55566 -4.78508 3.85821
head 3.86499 -2.35247 1.64072
rclavicle 3.79679e-014 -9.93923e-015
rhumerus -39.3283 26.987 -92.6516
rradius 130.244
rwrist -8.82234
rhand -24.6264 12.7342
rfingers 7.12502
rthumb 1.87236 -17.2374
lclavicle 3.79679e-014 -9.93923e-015
lhumerus -87.6282 -9.54601 95.955
lradius 117.612
lwrist 17.6011
lhand -26.0091 -13.9055
lfingers 7.12502
lthumb 0.537004 16.0736
rfemur 8.39366 7.60082 32.2319
rtibia 25.6669
rfoot 28.5801 -2.80179
rtoes -11.3915
lfemur -77.37 1.3206 -15.0637
ltibia 47.7335
lfoot -11.3628 -4.654
ltoes -7.23842
355
root -19.0834 16.8876 -49.6279 -159.219 -27.2804 -170.73
lowerback 2.98324 3.28933 7.33993
upperback -3.48243 4.70814 2.47736
thorax -4.91969 2.01871 -1.83058
lowerneck -20.3971 -4.19175 -5.66843
upperneck 1.49964 -4.86508 4.0395
head 3.8693 -2.38395 1.71003
rclavicle 4.29375e-014 1.15295e-014
rhumerus -39.6936 26.4913 -92.889
rradius 128.726
rwrist -8.10844
rhand -24.1809 12.0382
rfingers 7.12502
rthumb 2.30261 -17.9291
lclavicle 4.29375e-014 1.15295e-014
lhumerus -86.9608 -8.84038 95.8727
lradius 117.313
lwrist 16.903
lhand -25.7098 -13.8215
lfingers 7.12502
lthumb 0.826039 16.1567
rfemur 8.08363 7.90289 32.98
rtibia 28.9295
rfoot 27.7482 -3.58641
rtoes -5.84163
lfemur -77.1117 1.29964 -14.7128
ltibia 45.3389
lfoot -11.0915 -3.47928
ltoes -5.52546
356
root -19.258 16.867 -50.0445 -160.295 -27.4793 -170.412
lowerback 3.65586 3.25907 7.26029
upperback -3.28682 4.72843 2.73839
thorax -5.12387 2.03161 -1.55474
lowerneck -20.6639 -4.32163 -6.10983
upperneck 1.55667 -4.93757 4.25686
head 3.9454 -2.41091 1.83571
rclavicle -5.60573e-014 -1.47101e-014
rhumerus -40.1463 25.4687 -92.9273
rradius 126.544
rwrist -6.83959
rhand -23.6918 11.3818
rfingers 7.12502
rthumb 2.775 -18.5798
lclavicle -5.60573e-014 -1.47101e-014
lhumerus -85.9638 -8.30035 96.3449
lradius 116.648
lwrist 17.2555
lhand -25.4657 -14.0281
lfingers 7.12502
lthumb 1.06179 15.949
rfemur 7.91968 7.02554 33.1749
rtibia 32.6242
rfoot 26.7552 -5.12351
rtoes -9.99102
lfemur -75.726 1.0337 -14.4182
ltibia 43.9018
lfoot -10.2613 -3.22014
ltoes -4.79196
357
root -19.4251 16.8329 -50.4665 -161.286 -27.2719 -170.269
lowerback 4.05412 3.22346 6.72973
upperback -3.00294 4.68576 2.92127
thorax -5.10917 2.04318 -1.08948
lowerneck -20.417 -4.23443 -6.058
upperneck 1.20661 -4.85711 4.27268
head 3.79542 -2.37786 1.84704
rclavicle 8.05078e-014 -7.55382e-015
rhumerus -40.5044 24.6444 -93.1853
rradius 124.152
rwrist -6.11718
rhand -23.4718 10.9444
rfingers 7.12502
rthumb 2.98749 -19.0144
lclavicle 8.05078e-014 -7.55382e-015
lhumerus -84.853 -7.59233 96.63
lradius 115.977
lwrist 17.7757
lhand -25.3149 -13.9088
lfingers 7.12502
lthumb 1.20741 16.0675
rfemur 7.62235 6.33807 33.0736
rtibia 36.5925
rfoot 25.7075 -7.02493
rtoes -14.2117
lfemur -74.2719 0.89929 -14.1283
ltibia 43.0995
lfoot -10.0913 -2.78058
ltoes -3.25031
358
root -19.5919 16.788 -50.8909 -162.892 -27.1787 -170.119
lowerback 5.21982 3.13247 6.29671
upperback -2.62192 4.63989 3.13785
thorax -5.42629 2.03995 -0.684972
lowerneck -20.2581 -4.23776 -6.129
upperneck 0.966615 -4.86278 4.32681
head 3.70076 -2.38384 1.879
rclavicle 4.63168e-014 1.47101e-014
rhumerus -41.0579 23.679 -93.4852
rradius 121.625
rwrist -5.38677
rhand -23.5467 10.6395
rfingers 7.12502
rthumb 2.91512 -19.3203
lclavicle 4.63168e-014 1.47101e-014
lhumerus -83.6977 -7.03563 97.0734
lradius 115.168
lwrist 18.1189
lhand -25.4018 -14.0488
lfingers 7.12502
lthumb 1.1235 15.928
rfemur 7.83921 5.42202 33.0218
rtibia 40.6182
rfoot 23.8186 -9.53142
rtoes -20.8161
lfemur -72.2666 0.966272 -14.2976
ltibia 42.9102
lfoot -9.18282 -3.19752
ltoes -1.46326
359
root -19.7616 16.7401 -51.312 -164.369 -27.1142 -170.192
lowerback 6.22455 3.09933 5.6542
upperback -2.1171 4.62006 3.39662
thorax -5.53784 2.06356 -0.108175
lowerneck -20.2872 -4.28962 -6.41929
upperneck 0.699182 -4.8739 4.3132
head 3.62728 -2.40013 1.92109
rclavicle -1.27222e-014 -3.73715e-014
rhumerus -41.2836 22.5948 -93.2688
rradius 119.05
rwrist -5.17711
rhand -23.5129 10.11
rfingers 7.12502
rthumb 2.94782 -19.8494
lclavicle -1.27222e-014 -3.73715e-014
lhumerus -82.1334 -6.65237 97.7402
lradius 114.121
lwrist 18.4884
lhand -25.5992 -13.6515
lfingers 7.12502
lthumb 0.932807 16.3263
rfemur 7.73651 4.26101 32.588
rtibia 44.9916
rfoot 23.0797 -11.6951
rtoes -20.4529
lfemur -70.2078 0.760609 -14.4105
ltibia 43.2544
lfoot -8.0938 -3.39434
ltoes -1.62362
